<svg width="36" height="40" viewBox="0 0 36 40" fill="none" xmlns="http://www.w3.org/2000/svg">
<path d="M33 18.2679C34.3333 19.0377 34.3333 20.9623 33 21.7321L24 26.9282C22.6667 27.698 21 26.7358 21 25.1962V14.8038C21 13.2642 22.6667 12.302 24 13.0718L33 18.2679Z" fill="#D9D9D9"/>
<path d="M17 8.26795C18.3333 9.03775 18.3333 10.9623 17 11.7321L8 16.9282C6.66667 17.698 5 16.7358 5 15.1962L5 4.80385C5 3.26425 6.66667 2.302 8 3.0718L17 8.26795Z" fill="#D9D9D9"/>
<path d="M17 28.2679C18.3333 29.0377 18.3333 30.9623 17 31.7321L8 36.9282C6.66667 37.698 5 36.7358 5 35.1962L5 24.8038C5 23.2642 6.66667 22.302 8 23.0718L17 28.2679Z" fill="#D9D9D9"/>
</svg>
