<svg width="250" height="47" viewBox="0 0 250 47" fill="none" xmlns="http://www.w3.org/2000/svg">
<path d="M20.25 46.0417H0V0H20.25V46.0417Z" fill="#DC8706"/>
<path d="M27.8334 2H42.5834C52.0834 2 53.2084 8.5 53.2084 11.5C53.2084 16.1667 50.625 20.875 41.0417 20.875H36.25V32.75H27.8334V2ZM36.25 15.0417H39.875C42.5417 15.125 44.2084 13.9167 44.2084 11.5417C44.2084 8.625 42.2917 7.875 40.0834 7.875H36.25V15.0417Z" fill="#DC8706"/>
<path d="M54.5 2H76.7917V8.375H62.9583V13.9583H71.8333V20.2917H62.9583V26.1667H77.2083V32.7917H54.5V2Z" fill="#DC8706"/>
<path d="M79.5 2H87.375L97.9167 18.3333H98V2H104.458V32.7917H98.125L86.0833 15.375H86V32.7917H79.5V2Z" fill="#DC8706"/>
<path d="M108 2H130.292V8.375H116.458V13.9583H125.292V20.2917H116.458V26.1667H130.708V32.7917H108V2Z" fill="#DC8706"/>
<path d="M140.625 8.125H132.458V2H157.208V8.125H149.083V32.7917H140.625V8.125Z" fill="#DC8706"/>
<path d="M158.917 2H173.083C182.958 2 184.875 6.875 184.875 10.875C184.875 14.7083 182.583 17.25 179.292 18.625L184.833 32.7917H175.417L171.208 20.1667H167.375V32.7917H158.917V2ZM171.75 14.2917C174.167 14.2917 175.917 13.2083 175.917 11.2083C175.917 9.25 174.708 7.875 172.083 7.875H167.333V14.2917H171.75Z" fill="#DC8706"/>
<path d="M218.5 2H226.375L236.917 18.3333H237V2H243.458V32.7917H237.125L225.083 15.375H225V32.7917H218.5V2Z" fill="#DC8706"/>
<path d="M201.083 32.7917C192.25 32.7917 186.875 26.875 186.875 17.4167C186.875 7.95835 192.25 2.04169 201.083 2.04169C209.917 2.04169 215.25 7.95835 215.25 17.4167C215.25 26.8334 209.917 32.7917 201.083 32.7917ZM195.833 17.375C195.833 25.3334 198.167 26.875 201.083 26.875C203.958 26.875 206.333 25.3334 206.333 17.375C206.333 9.83335 204.417 7.87502 201.083 7.87502C197.667 7.87502 195.833 10.2084 195.833 17.375Z" fill="#DC8706"/>
<path d="M247.875 5.125C246.792 5.125 245.792 4.25 245.792 3C245.792 1.75 246.75 0.875 247.875 0.875C249.042 0.875 250 1.79167 250 3.04167C250 4.16667 249.083 5.125 247.875 5.125ZM247.875 1.04167C246.833 1.04167 245.958 1.91667 245.958 3C245.958 4.08333 246.833 4.95833 247.875 4.95833C249 4.95833 249.792 4.04167 249.792 3C249.792 1.91667 248.958 1.04167 247.875 1.04167ZM247.833 1.625C248.125 1.625 248.292 1.625 248.458 1.70833C248.75 1.79167 248.875 2.08333 248.875 2.33333C248.875 2.5 248.792 2.83333 248.333 2.95833C248.583 3.08333 248.667 3.20833 248.708 3.54167C248.75 3.91667 248.792 4.125 248.917 4.33333H248.375C248.292 4.16667 248.292 4.08333 248.25 3.75C248.167 3.16667 248.125 3.125 247.458 3.125V4.33333H247V1.625H247.833ZM247.458 2.75H247.833C248.042 2.75 248.417 2.75 248.417 2.375C248.417 2.25 248.375 2.125 248.208 2.04167C248.125 2 248.042 2 247.75 2H247.458V2.75Z" fill="#DC8706"/>
<path d="M27.8334 40.0833H30.2084V40.7083H29.4167V44.4166H28.625V40.7083H27.8334V40.0833Z" fill="#DC8706"/>
<path d="M39.1667 43.5C39.1667 43.8333 39.125 44.0417 38.9167 44.2083C38.6667 44.4583 38.25 44.5 37.9583 44.5C37 44.5 36.75 44.0417 36.75 43.5V41.0833C36.75 40.9167 36.75 40.5833 36.9583 40.3333C37.125 40.1667 37.4583 40 37.9583 40C38.3333 40 38.6667 40.125 38.875 40.25C39.0833 40.4167 39.1667 40.6667 39.1667 41.0833V43.5ZM38.3333 41.125C38.3333 40.9167 38.3333 40.5833 37.9583 40.5833C37.5417 40.5833 37.5417 40.9167 37.5417 41.1667V43.3333C37.5417 43.5833 37.5417 43.875 37.9583 43.875C38.3333 43.875 38.3333 43.5833 38.3333 43.375V41.125Z" fill="#DC8706"/>
<path d="M45.6666 40.0833H48.0833V40.7083H47.25V44.4166H46.4583V40.7083H45.6666V40.0833Z" fill="#DC8706"/>
<path d="M54.9584 40.0833H55.875L56.6667 44.4166H55.875L55.75 43.7083H55L54.875 44.4166H54.0834L54.9584 40.0833ZM55.125 43.0416H55.6667L55.4167 41.1666L55.125 43.0416Z" fill="#DC8706"/>
<path d="M63.4166 40.0833H64.2083V43.75H65.375V44.4166H63.4166V40.0833Z" fill="#DC8706"/>
<path d="M81.25 41.6667V41.125C81.25 40.7917 81.2084 40.625 80.8334 40.625C80.4584 40.625 80.4584 40.9167 80.4584 41.0833V43.4167C80.4584 43.6667 80.5 43.9167 80.875 43.9167C81.25 43.9167 81.25 43.6667 81.25 43.375V42.7917H82.0417V43.4167C82.0417 43.75 82.0417 44.5 80.875 44.5C80.6667 44.5 80.2917 44.4583 80.0417 44.2917C79.7084 44.0833 79.7084 43.7083 79.7084 43.5V41.125C79.7084 40.7917 79.7084 40.5417 79.9167 40.3333C80.25 40 80.7084 40 80.875 40C82.0417 40 82.0417 40.7083 82.0417 41V41.6667H81.25Z" fill="#DC8706"/>
<path d="M91.3333 43.5C91.3333 43.8333 91.2916 44.0417 91.0833 44.2083C90.8333 44.4583 90.4166 44.5 90.125 44.5C89.1666 44.5 88.9166 44.0417 88.9166 43.5V41.0833C88.9166 40.9167 88.9166 40.5833 89.125 40.3333C89.2916 40.1667 89.625 40 90.125 40C90.5 40 90.8333 40.125 91.0416 40.25C91.25 40.4167 91.3333 40.6667 91.3333 41.0833V43.5ZM90.5416 41.125C90.5416 40.9167 90.5416 40.5833 90.1666 40.5833C89.75 40.5833 89.75 40.9167 89.75 41.1667V43.3333C89.75 43.5833 89.75 43.875 90.1666 43.875C90.5416 43.875 90.5416 43.5833 90.5416 43.375V41.125Z" fill="#DC8706"/>
<path d="M100.833 44.4166H99.8333L99.0417 41.1666L99.125 44.4166H98.375V40.0833H99.4167L100.167 43.25L100.083 40.0833H100.833V44.4166Z" fill="#DC8706"/>
<path d="M109.458 41.6667V41.125C109.458 40.7917 109.417 40.625 109.042 40.625C108.708 40.625 108.667 40.9167 108.667 41.0833V43.4167C108.667 43.6667 108.708 43.9167 109.083 43.9167C109.458 43.9167 109.458 43.6667 109.458 43.375V42.7917H110.25V43.4167C110.25 43.75 110.25 44.5 109.083 44.5C108.875 44.5 108.5 44.4583 108.25 44.2917C107.917 44.0833 107.917 43.7083 107.917 43.5V41.125C107.917 40.7917 107.917 40.5417 108.125 40.3333C108.458 40 108.917 40 109.083 40C110.25 40 110.25 40.7083 110.25 41V41.6667H109.458Z" fill="#DC8706"/>
<path d="M117.167 40.0833H118.75C119.542 40.0833 119.542 40.625 119.542 41V41.4583C119.542 42 119.375 42.125 119 42.2083C119.208 42.25 119.583 42.375 119.583 42.9583V43.8333C119.583 44.0416 119.583 44.2916 119.75 44.4166H118.875C118.792 44.25 118.75 44.0833 118.75 43.9583V43.0416C118.75 42.75 118.75 42.5416 118.333 42.5416H117.958V44.4583H117.167V40.0833ZM117.958 41.875H118.375C118.75 41.875 118.75 41.6666 118.75 41.4583V41.0416C118.75 40.6666 118.542 40.6666 118.375 40.6666H117.958V41.875Z" fill="#DC8706"/>
<path d="M126.542 40.0833H128.667V40.75H127.375V41.75H128.583V42.4166H127.375V43.75H128.708V44.4166H126.542V40.0833Z" fill="#DC8706"/>
<path d="M135.208 40.0833H137.583V40.7083H136.792V44.4166H136V40.7083H135.208V40.0833Z" fill="#DC8706"/>
<path d="M144.125 40.0833H146.25V40.75H144.958V41.75H146.167V42.4166H144.958V43.75H146.292V44.4166H144.125V40.0833Z" fill="#DC8706"/>
<path d="M160.708 40.0833H162.333C163.083 40.0833 163.083 40.6666 163.083 41.0833V41.6666C163.083 42.375 163 42.6666 162.208 42.6666H161.542V44.4583H160.75V40.0833H160.708ZM161.5 42H161.875C162.167 42 162.25 41.9583 162.25 41.625V41.1666C162.25 40.875 162.25 40.7083 161.875 40.7083H161.5V42Z" fill="#DC8706"/>
<path d="M169.875 40.0833H171.458C172.25 40.0833 172.25 40.625 172.25 41V41.4583C172.25 42 172.083 42.125 171.708 42.2083C171.917 42.25 172.292 42.375 172.292 42.9583V43.8333C172.292 44.0416 172.292 44.2916 172.458 44.4166H171.583C171.5 44.25 171.458 44.0833 171.458 43.9583V43.0416C171.458 42.75 171.458 42.5416 171.042 42.5416H170.667V44.4583H169.875V40.0833ZM170.667 41.875H171.083C171.458 41.875 171.458 41.6666 171.458 41.4583V41.0416C171.458 40.6666 171.25 40.6666 171.083 40.6666H170.667V41.875Z" fill="#DC8706"/>
<path d="M181.625 43.5C181.625 43.8333 181.583 44.0417 181.375 44.2083C181.125 44.4583 180.708 44.5 180.417 44.5C179.458 44.5 179.208 44.0417 179.208 43.5V41.0833C179.208 40.9167 179.208 40.5833 179.417 40.3333C179.583 40.1667 179.917 40 180.417 40C180.792 40 181.125 40.125 181.333 40.25C181.542 40.4167 181.625 40.6667 181.625 41.0833V43.5ZM180.833 41.125C180.833 40.9167 180.833 40.5833 180.458 40.5833C180.042 40.5833 180.042 40.9167 180.042 41.1667V43.3333C180.042 43.5833 180.042 43.875 180.458 43.875C180.833 43.875 180.833 43.5833 180.833 43.375V41.125Z" fill="#DC8706"/>
<path d="M188.167 40.0833H190.542V40.7083H189.75V44.4166H188.958V40.7083H188.167V40.0833Z" fill="#DC8706"/>
<path d="M197.125 40.0833H199.208V40.75H197.917V41.75H199.125V42.4166H197.917V43.75H199.25V44.4166H197.125V40.0833Z" fill="#DC8706"/>
<path d="M207.667 41.6667V41.125C207.667 40.7917 207.625 40.625 207.25 40.625C206.917 40.625 206.875 40.9167 206.875 41.0833V43.4167C206.875 43.6667 206.917 43.9167 207.292 43.9167C207.667 43.9167 207.667 43.6667 207.667 43.375V42.7917H208.458V43.4167C208.458 43.75 208.458 44.5 207.292 44.5C207.083 44.5 206.708 44.4583 206.458 44.2917C206.125 44.0833 206.125 43.7083 206.125 43.5V41.125C206.125 40.7917 206.125 40.5417 206.333 40.3333C206.667 40 207.125 40 207.292 40C208.458 40 208.458 40.7083 208.458 41V41.6667H207.667Z" fill="#DC8706"/>
<path d="M214.917 40.0833H217.333V40.7083H216.542V44.4166H215.75V40.7083H214.917V40.0833Z" fill="#DC8706"/>
<path d="M223.875 40.0833H224.667V44.4166H223.875V40.0833Z" fill="#DC8706"/>
<path d="M234.125 43.5C234.125 43.8333 234.083 44.0417 233.875 44.2083C233.625 44.4583 233.208 44.5 232.917 44.5C231.958 44.5 231.708 44.0417 231.708 43.5V41.0833C231.708 40.9167 231.708 40.5833 231.917 40.3333C232.083 40.1667 232.417 40 232.917 40C233.292 40 233.625 40.125 233.833 40.25C234.042 40.4167 234.125 40.6667 234.125 41.0833V43.5ZM233.333 41.125C233.333 40.9167 233.333 40.5833 232.958 40.5833C232.542 40.5833 232.542 40.9167 232.542 41.1667V43.3333C232.542 43.5833 232.542 43.875 232.958 43.875C233.333 43.875 233.333 43.5833 233.333 43.375V41.125Z" fill="#DC8706"/>
<path d="M243.583 44.4166H242.583L241.833 41.1666L241.917 44.4166H241.167V40.0833H242.167L242.958 43.25L242.875 40.0833H243.583V44.4166Z" fill="#DC8706"/>
</svg>
